<svg id="Layer_6" enable-background="new 0 0 64 64" height="512" viewBox="0 0 64 64" width="512" xmlns="http://www.w3.org/2000/svg" xmlns:xlink="http://www.w3.org/1999/xlink"><linearGradient id="SVGID_1_" gradientUnits="userSpaceOnUse" x1="32" x2="32" y1="63" y2="1"><stop offset="0" stop-color="#9f2fff"/><stop offset="1" stop-color="#0bb1d3"/></linearGradient><path d="m33 17h2c0 .551.449 1 1 1s1-.449 1-1h2c0 1.654-1.346 3-3 3s-3-1.346-3-3zm-5 3c1.654 0 3-1.346 3-3h-2c0 .551-.449 1-1 1s-1-.449-1-1h-2c0 1.654 1.346 3 3 3zm1 2h-2c0 2.757 2.243 5 5 5s5-2.243 5-5h-2c0 1.654-1.346 3-3 3s-3-1.346-3-3zm-15 17v-3c0-3.78.596-13.47 6.011-22.29.058-2.278.766-3.675 1.65-4.732-.46-.939-.661-1.988-.661-2.978 0-2.757 2.243-5 5-5 1.641 0 3.088.806 4 2.031v-.031h4c5.514 0 10 4.486 10 10v.729c5.405 8.816 6 18.494 6 22.271v3c0 9.809-6.41 24-18 24s-18-14.191-18-24zm33.894 2.006c-2.293 5.123-6.321 10.168-12.487 12.908l-.812-1.827c8.111-3.605 12.209-11.593 13.36-17.925-.173-3.724-.957-10-3.954-16.256v1.094c0 4.439-2.429 8.315-6.023 10.39-.099 1.598-.807 2.739-2.344 4.786.491-.109.958-.176 1.366-.176 1.652 0 2.617 1.176 2.902 3.467 1.484-1.829 3.541-4.777 4.118-7.663l1.961.393c-.946 4.732-5.12 9.308-6.074 10.305-.28 2.312-1.247 3.498-2.907 3.498-.138 0-.314-.032-.516-.086-1.342 1.234-9.081 8.117-16.009 9.808 2.66 4.142 6.502 7.278 11.525 7.278 9.802 0 15.107-11.936 15.894-19.994zm-10.854.996c.614-.002.96-1.04.96-3.002s-.346-3-1-3c-1.016 0-2.974.726-4.476 1.392.298.466.476 1.015.476 1.608 0 .322-.064.626-.159.917 1.847 1.055 3.709 2.017 4.199 2.085zm-9.882-2.085c-.094-.291-.158-.595-.158-.917 0-.593.178-1.143.476-1.609-1.372-.609-3.383-1.391-4.476-1.391-.654 0-1 1.038-1 3s.346 3 1 3c.442-.064 2.305-1.025 4.158-2.083zm2.842.083c.551 0 1-.449 1-1s-.449-1-1-1-1 .449-1 1 .449 1 1 1zm3.324-6.087c1.346-1.773 2.052-2.723 2.394-3.51-1.172.383-2.42.597-3.718.597-.947 0-1.864-.122-2.748-.33.544 1.956 1.863 3.77 2.708 4.783.097-.042.194-.085.297-.128.388-.517.745-.987 1.067-1.412zm-13.324-14.913v-1.094c-.824 1.72-1.477 3.439-1.999 5.11.007 4.171 2.644 8.967 4.011 11.174.3-.113.622-.19.988-.19 2.088 0 5.709 1.741 6.372 2.068.154-.033.315-.045.477-.053-1.106-1.46-2.485-3.704-2.786-6.09-4.158-1.886-7.063-6.068-7.063-10.925zm-2.667 27.883c.534 1.697 1.228 3.403 2.082 5.016 5.584-1.084 12.464-6.54 15.042-8.83-.892-.442-1.883-.99-2.844-1.548-.467.3-1.019.479-1.613.479s-1.146-.179-1.612-.478c-1.848 1.073-3.834 2.13-4.926 2.406-1.194 1.086-3.564 2.546-6.129 2.955zm5.667-40.883c0 1.203.39 4 4 4 1.362 0 2.755-.392 4.229-.807 2.641-.742 5.372-1.51 8.218-.088.881.441 1.606.981 2.206 1.572-.997-3.281-4.05-5.677-7.653-5.677h-3.101c.066.323.101.658.101 1 0 1.654-1.346 3-3 3s-3-1.346-3-3v-1h2v1c0 .551.449 1 1 1s1-.449 1-1c0-1.654-1.346-3-3-3s-3 1.346-3 3zm-1 13c0 5.514 4.486 10 10 10s10-4.486 10-10v-3c0-1.56-.903-3.833-3.447-5.105-2.153-1.077-4.402-.445-6.782.225-1.541.432-3.133.88-4.771.88-1.814 0-3.148-.542-4.092-1.373-.529.749-.908 1.736-.908 3.373zm-6 20c0 1.748.263 3.8.787 5.936 1.644-.206 3.231-.992 4.328-1.723-.738-.799-1.115-2.2-1.115-4.213 0-1.424.197-2.527.567-3.345-.941-1.465-2.722-4.492-3.761-7.863-.674 3.535-.806 6.504-.806 8.208z" fill="url(#SVGID_1_)"/></svg>