<svg id="_x33_0_Gift" enable-background="new 0 0 64 64" height="512" viewBox="0 0 64 64" width="512" xmlns="http://www.w3.org/2000/svg"><path d="m36 20c1.654 0 3-1.346 3-3h-2c0 .551-.449 1-1 1s-1-.449-1-1h-2c0 1.654 1.346 3 3 3z"/><path d="m28 20c1.654 0 3-1.346 3-3h-2c0 .551-.449 1-1 1s-1-.449-1-1h-2c0 1.654 1.346 3 3 3z"/><path d="m29 22h-2c0 2.757 2.243 5 5 5s5-2.243 5-5h-2c0 1.654-1.346 3-3 3s-3-1.346-3-3z"/><path d="m44 13.729v-.729c0-5.514-4.486-10-10-10h-4v.031c-.912-1.225-2.359-2.031-4-2.031-2.757 0-5 2.243-5 5 0 .99.201 2.039.661 2.978-.884 1.057-1.592 2.454-1.65 4.732-5.415 8.82-6.011 18.51-6.011 22.29v3c0 5.01 1.734 10.912 4.526 15.403 3.446 5.544 8.231 8.597 13.474 8.597s10.028-3.053 13.474-8.597c2.792-4.491 4.526-10.393 4.526-15.403v-3c0-3.778-.595-13.456-6-22.271zm-18-10.729c1.654 0 3 1.346 3 3 0 .551-.449 1-1 1s-1-.449-1-1v-1h-2v1c0 1.654 1.346 3 3 3s3-1.346 3-3c0-.342-.035-.677-.101-1h3.101c3.603 0 6.656 2.396 7.654 5.677-.601-.591-1.325-1.131-2.206-1.572-2.846-1.422-5.577-.654-8.218.088-1.475.415-2.868.807-4.23.807-3.61 0-4-2.797-4-4 0-1.654 1.346-3 3-3zm-4 11c0-1.637.379-2.624.908-3.373.944.831 2.278 1.373 4.092 1.373 1.638 0 3.23-.448 4.771-.881 2.38-.669 4.629-1.302 6.782-.225 2.544 1.273 3.447 3.546 3.447 5.106v3c0 5.514-4.486 10-10 10s-10-4.486-10-10zm10.841 25.917c.095-.291.159-.595.159-.917 0-.593-.178-1.142-.476-1.608 1.502-.666 3.46-1.392 4.476-1.392.654 0 1 1.038 1 3s-.346 3-.96 3.002c-.49-.068-2.352-1.03-4.199-2.085zm-5.777-9.991c.301 2.386 1.68 4.629 2.786 6.09-.162.008-.323.02-.477.053-.664-.328-4.285-2.069-6.373-2.069-.366 0-.688.077-.988.19-1.367-2.207-4.005-7.003-4.011-11.174.522-1.671 1.175-3.39 1.999-5.11v1.094c0 4.857 2.905 9.039 7.064 10.926zm-4.064 12.074c-.654 0-1-1.038-1-3s.346-3 1-3c1.093 0 3.104.782 4.476 1.391-.298.466-.476 1.016-.476 1.609 0 .322.064.626.158.917-1.853 1.058-3.716 2.019-4.158 2.083zm6-3c0-.551.449-1 1-1s1 .449 1 1-.449 1-1 1-1-.449-1-1zm3.257-3.675c-.103.044-.201.086-.297.128-.844-1.013-2.163-2.827-2.708-4.783.884.208 1.801.33 2.748.33 1.298 0 2.546-.214 3.718-.597-.342.787-1.048 1.737-2.394 3.51-.322.425-.679.895-1.067 1.412zm-16.257.675c0-1.704.132-4.673.806-8.208 1.039 3.371 2.82 6.397 3.761 7.863-.37.818-.567 1.921-.567 3.345 0 2.013.377 3.414 1.114 4.213-1.096.732-2.684 1.517-4.328 1.723-.523-2.136-.786-4.188-.786-5.936zm1.333 10.883c2.565-.409 4.936-1.87 6.129-2.956 1.091-.276 3.078-1.333 4.926-2.406.466.3 1.018.479 1.612.479s1.146-.179 1.612-.478c.961.558 1.952 1.106 2.844 1.548-2.577 2.29-9.458 7.746-15.042 8.83-.854-1.613-1.548-3.319-2.081-5.017zm14.667 14.117c-5.023 0-8.865-3.136-11.524-7.278 6.928-1.691 14.667-8.574 16.009-9.808.201.054.377.086.515.086 1.66 0 2.627-1.186 2.906-3.498.955-.998 5.128-5.574 6.074-10.305l-1.961-.393c-.577 2.886-2.634 5.834-4.118 7.663-.284-2.291-1.249-3.467-2.901-3.467-.408 0-.875.067-1.367.176 1.538-2.048 2.246-3.188 2.344-4.786 3.594-2.075 6.023-5.951 6.023-10.39v-1.094c2.996 6.255 3.78 12.532 3.954 16.256-1.151 6.331-5.249 14.319-13.36 17.925l.812 1.827c6.166-2.74 10.194-7.785 12.487-12.908-.786 8.058-6.091 19.994-15.893 19.994z"/></svg>