<svg id="Layer_5" enable-background="new 0 0 64 64" height="512" viewBox="0 0 64 64" width="512" xmlns="http://www.w3.org/2000/svg"><path d="m62.183 55.396c.506-.67.817-1.494.817-2.396 0-2.206-1.794-4-4-4h-3.295l-3.815-10.682c-.709-1.985-2.601-3.318-4.709-3.318h-.181v-1c0-1.654-1.346-3-3-3h-1.117l-.898-7.186c-.423-3.384-2.511-6.201-5.374-7.685 2.6-1.322 4.389-4.018 4.389-7.129 0-4.411-3.589-8-8-8s-8 3.589-8 8c0 2.732 1.378 5.146 3.474 6.59-2.233.758-4.143 2.211-5.474 4.105v-2.695c0-2.206-1.794-4-4-4h-14c-2.206 0-4 1.794-4 4s1.794 4 4 4h10v10.527c-6.889 1.783-12 8.034-12 15.473 0 8.822 7.178 16 16 16 8.144 0 14.872-6.12 15.861-14h3.941l-.715 4.384c-1.81.753-3.087 2.537-3.087 4.616 0 2.757 2.243 5 5 5 1.627 0 3.061-.793 3.974-2h17.026c1.103 0 2-.897 2-2v-2c0-.659-.324-1.24-.817-1.604zm-12.177-16.405 4.289 12.009h4.705c1.103 0 2 .897 2 2s-.897 2-2 2h-6.886c-.843 0-1.6-.533-1.883-1.328l-4.052-11.345c-.284-.794-1.041-1.327-1.884-1.327h-10.472c-.278-.69-.608-1.356-.981-2h11.158c1.302 0 2.402-.839 2.816-2h.365c1.265 0 2.4.8 2.825 1.991zm-4.539 7.291 2.88 8.063c.083.231.19.448.311.655h-4.588zm-.467-12.282v2c0 .551-.449 1-1 1h-12.516c-.725-.899-1.559-1.721-2.484-2.463v-1.537h15c.551 0 1 .449 1 1zm-23.977 3.229c.097 1.68 1.227 3.071 2.769 3.564l-2.773 2.773c-.316-.186-.656-.33-1.019-.425v-6.074c.345.036.685.092 1.023.162zm-2.023 11.771c-1.103 0-2-.897-2-2s.897-2 2-2 2 .897 2 2-.897 2-2 2zm-1-5.858c-.363.094-.704.238-1.019.425l-4.305-4.305c1.482-1.213 3.316-2.011 5.324-2.211zm-6.738-2.466 4.305 4.305c-.186.316-.33.656-.425 1.019h-6.091c.2-2.008.997-3.842 2.211-5.324zm3.88 7.324c.094.363.238.704.425 1.019l-4.305 4.305c-1.214-1.482-2.011-3.316-2.211-5.324zm1.839 2.433c.316.186.656.33 1.019.425v6.091c-2.008-.2-3.842-.998-5.324-2.211zm3.019.425c.363-.094.704-.238 1.019-.425l4.305 4.305c-1.482 1.213-3.316 2.011-5.324 2.211zm6.738 2.466-4.305-4.305c.186-.316.33-.656.425-1.019h6.091c-.2 2.008-.997 3.842-2.211 5.324zm-3.88-7.324c-.094-.363-.238-.704-.425-1.019l4.307-4.307c1.25 1.525 2.016 3.366 2.21 5.326zm4.142-37c0-3.309 2.691-6 6-6s6 2.691 6 6-2.691 6-6 6-6-2.691-6-6zm5 8c4.058 0 7.497 3.036 8 7.062l.867 6.938h-11.867v-5.171c0-1.557.606-3.021 1.707-4.122l-1.414-1.414c-1.479 1.478-2.293 3.444-2.293 5.536v11.171c0 1.103-.897 2-2 2s-2-.897-2-2v-4.716-6.284c0-4.962 4.038-9 9-9zm-27 2c-1.103 0-2-.897-2-2s.897-2 2-2h14c1.103 0 2 .897 2 2v9 5.139c-.663-.083-1.33-.139-2-.139-.679 0-1.343.056-2 .139v-12.139zm14 42c-7.72 0-14-6.28-14-14s6.28-14 14-14c.671 0 1.339.065 2 .159v2.014c-.659-.11-1.327-.173-2-.173-6.617 0-12 5.383-12 12s5.383 12 12 12 12-5.383 12-12c0-2.825-.983-5.508-2.772-7.659.442-.607.711-1.341.751-2.138 2.567 2.601 4.021 6.065 4.021 9.797 0 7.72-6.28 14-14 14zm15.487-18h9.513v1c0 1.654-1.346 3-3 3h-6c0-1.373-.184-2.711-.513-4zm6.513 6c.745 0 1.445-.175 2.081-.468l-.808 5.04c-.636-.328-1.343-.528-2.1-.555l.656-4.017zm-1 12c-1.654 0-3-1.346-3-3s1.346-3 3-3 3 1.346 3 3-1.346 3-3 3zm21-2h-16.101c.066-.323.101-.658.101-1s-.035-.677-.101-1h7.215 6.886 2z"/></svg>