<?xml version="1.0"?>
<svg xmlns="http://www.w3.org/2000/svg" viewBox="0 0 64 64" width="512" height="512"><g id="outline"><path d="M32,23a9,9,0,1,0,9,9A9.01,9.01,0,0,0,32,23Zm0,16a7,7,0,1,1,7-7A7.008,7.008,0,0,1,32,39Z"/><path d="M61,2H43a1,1,0,0,0-1,1V9a1,1,0,0,0,1,1h5.586l-9.777,9.778a14.137,14.137,0,0,0-13.617,0L24.414,19l4.293-4.293a1,1,0,0,0,0-1.414l-4-4a1,1,0,0,0-1.414,0L19,13.586,15.414,10H21a1,1,0,0,0,1-1V3a1,1,0,0,0-1-1H3A1,1,0,0,0,2,3V21a1,1,0,0,0,1,1H9a1,1,0,0,0,1-1V15.414L13.586,19,9.293,23.293a1,1,0,0,0,0,1.414l4,4a1,1,0,0,0,1.414,0L19,24.414l.777.778A13.971,13.971,0,0,0,28,45.406V47H24a1,1,0,0,0-1,1v5a1,1,0,0,0,1,1h4v7a1,1,0,0,0,1,1h6a1,1,0,0,0,1-1V54h4a1,1,0,0,0,1-1V48a1,1,0,0,0-1-1H36V45.406a13.971,13.971,0,0,0,8.223-20.214L54,15.414V21a1,1,0,0,0,1,1h6a1,1,0,0,0,1-1V3A1,1,0,0,0,61,2ZM60,20H56V13a1,1,0,0,0-1.707-.707L42.258,24.329a1,1,0,0,0-.137,1.244A11.971,11.971,0,0,1,34.77,43.665a1,1,0,0,0-.77.973V48a1,1,0,0,0,1,1h4v3H35a1,1,0,0,0-1,1v7H30V53a1,1,0,0,0-1-1H25V49h4a1,1,0,0,0,1-1V44.638a1,1,0,0,0-.77-.973,11.971,11.971,0,0,1-7.351-18.092,1,1,0,0,0-.137-1.244l-2.035-2.036a1,1,0,0,0-1.414,0L14,26.586,11.414,24l4.293-4.293a1,1,0,0,0,0-1.414l-6-6A1,1,0,0,0,8,13v7H4V4H20V8H13a1,1,0,0,0-.707,1.707l6,6a1,1,0,0,0,1.414,0L24,11.414,26.586,14l-4.293,4.293a1,1,0,0,0,0,1.415l2.036,2.034a1,1,0,0,0,1.244.137,12.127,12.127,0,0,1,12.855,0,1,1,0,0,0,1.244-.136L51.707,9.707A1,1,0,0,0,51,8H44V4H60Z"/></g></svg>
