<svg height="512" viewBox="0 0 64 64" width="512" xmlns="http://www.w3.org/2000/svg" xmlns:xlink="http://www.w3.org/1999/xlink"><linearGradient id="linear-gradient" gradientUnits="userSpaceOnUse" x2="62.65" y1="32" y2="32"><stop offset="0" stop-color="#ff8727"/><stop offset=".081" stop-color="#ff8757"/><stop offset=".192" stop-color="#ff8793"/><stop offset=".245" stop-color="#ff87ab"/><stop offset=".285" stop-color="#ff75a7"/><stop offset=".432" stop-color="#ff3997"/><stop offset=".501" stop-color="#ff2191"/><stop offset=".532" stop-color="#f02999"/><stop offset=".59" stop-color="#ca3eaf"/><stop offset=".669" stop-color="#8c61d3"/><stop offset=".758" stop-color="#3f8cff"/><stop offset="1" stop-color="#78ff3f"/></linearGradient><g id="Gradient_outline" fill="url(#linear-gradient)" data-name="Gradient outline"><path d="m32 23a9 9 0 1 0 9 9 9.01 9.01 0 0 0 -9-9zm0 16a7 7 0 1 1 7-7 7.008 7.008 0 0 1 -7 7z"/><path d="m61 2h-18a1 1 0 0 0 -1 1v6a1 1 0 0 0 1 1h5.586l-9.777 9.778a14.137 14.137 0 0 0 -13.617 0l-.778-.778 4.293-4.293a1 1 0 0 0 0-1.414l-4-4a1 1 0 0 0 -1.414 0l-4.293 4.293-3.586-3.586h5.586a1 1 0 0 0 1-1v-6a1 1 0 0 0 -1-1h-18a1 1 0 0 0 -1 1v18a1 1 0 0 0 1 1h6a1 1 0 0 0 1-1v-5.586l3.586 3.586-4.293 4.293a1 1 0 0 0 0 1.414l4 4a1 1 0 0 0 1.414 0l4.293-4.293.777.778a13.971 13.971 0 0 0 8.223 20.214v1.594h-4a1 1 0 0 0 -1 1v5a1 1 0 0 0 1 1h4v7a1 1 0 0 0 1 1h6a1 1 0 0 0 1-1v-7h4a1 1 0 0 0 1-1v-5a1 1 0 0 0 -1-1h-4v-1.594a13.971 13.971 0 0 0 8.223-20.214l9.777-9.778v5.586a1 1 0 0 0 1 1h6a1 1 0 0 0 1-1v-18a1 1 0 0 0 -1-1zm-1 18h-4v-7a1 1 0 0 0 -1.707-.707l-12.035 12.036a1 1 0 0 0 -.137 1.244 11.971 11.971 0 0 1 -7.351 18.092 1 1 0 0 0 -.77.973v3.362a1 1 0 0 0 1 1h4v3h-4a1 1 0 0 0 -1 1v7h-4v-7a1 1 0 0 0 -1-1h-4v-3h4a1 1 0 0 0 1-1v-3.362a1 1 0 0 0 -.77-.973 11.971 11.971 0 0 1 -7.351-18.092 1 1 0 0 0 -.137-1.244l-2.035-2.036a1 1 0 0 0 -1.414 0l-4.293 4.293-2.586-2.586 4.293-4.293a1 1 0 0 0 0-1.414l-6-6a1 1 0 0 0 -1.707.707v7h-4v-16h16v4h-7a1 1 0 0 0 -.707 1.707l6 6a1 1 0 0 0 1.414 0l4.293-4.293 2.586 2.586-4.293 4.293a1 1 0 0 0 0 1.415l2.036 2.034a1 1 0 0 0 1.244.137 12.127 12.127 0 0 1 12.855 0 1 1 0 0 0 1.244-.136l12.035-12.036a1 1 0 0 0 -.707-1.707h-7v-4h16z"/></g></svg>